<?xml version="1.0" encoding="UTF-8"?> <svg xmlns="http://www.w3.org/2000/svg" id="Слой_1" data-name="Слой 1" viewBox="0 0 331.93 61.22"><defs><style>.cls-1{fill:#fff;}.cls-2{fill:#00abe4;}</style></defs><rect class="cls-1" y="32.18" width="31.16" height="29.04"></rect><rect class="cls-1" x="31.71" width="32.18" height="32.18"></rect><rect class="cls-1" x="6.05" y="5.6" width="51.68" height="50.92"></rect><polygon class="cls-2" points="15.63 19.37 15.63 50.15 25.67 50.15 25.67 9.6 15.63 19.37"></polygon><polygon class="cls-2" points="48.73 19.37 48.73 50.15 38.69 50.15 38.69 9.6 48.73 19.37"></polygon><polygon class="cls-2" points="37.2 27.37 37.2 50.15 27.16 50.15 27.16 17.6 37.2 27.37"></polygon><polygon class="cls-1" points="74.68 15.28 74.68 36.48 78.87 36.48 78.87 23.34 87.33 36.48 95.61 23.46 95.61 36.48 100.17 36.48 100.17 15.28 95.61 15.28 87.42 28.23 78.87 15.28 74.68 15.28"></polygon><polygon class="cls-1" points="123.23 19.55 123.23 15.28 102.12 15.28 102.12 36.48 123.23 36.48 123.23 32.18 106.3 32.18 106.3 27.74 118.77 27.74 118.77 23.58 106.3 23.58 106.3 19.55 123.23 19.55"></polygon><polygon class="cls-1" points="146.58 15.28 125.18 15.28 125.18 19.55 133.74 19.55 133.74 36.48 137.93 36.48 137.93 19.55 146.58 19.55 146.58 15.28"></polygon><polygon class="cls-1" points="244.88 32.39 244.88 15.28 240.32 15.28 240.32 36.48 242.6 36.48 244.88 36.48 257.44 36.48 257.44 32.39 244.88 32.39"></polygon><rect class="cls-1" x="259.39" y="15.28" width="4.37" height="21.21"></rect><polygon class="cls-1" points="286.73 15.28 265.71 15.28 265.71 19.55 274.18 19.55 274.18 36.48 278.36 36.48 278.36 19.55 286.73 19.55 286.73 15.28"></polygon><polygon class="cls-1" points="327.66 15.28 327.66 29.62 315.29 15.28 310.64 15.28 310.64 36.48 315.29 36.48 315.29 22.2 327.66 36.48 329.08 36.48 331.93 36.48 331.93 15.28 327.66 15.28"></polygon><path class="cls-1" d="M187.2,15.28H175.59A4.69,4.69,0,0,0,170.93,20V31.82a4.69,4.69,0,0,0,4.66,4.67H187.2a4.68,4.68,0,0,0,4.67-4.67V20A4.68,4.68,0,0,0,187.2,15.28Zm.51,15.89a1.59,1.59,0,0,1-1.59,1.59h-9.83a1.6,1.6,0,0,1-1.6-1.59V20.72a1.6,1.6,0,0,1,1.6-1.6h9.83a1.6,1.6,0,0,1,1.59,1.6Z" transform="translate(0 0)"></path><path class="cls-1" d="M233.53,15.28H221.92A4.68,4.68,0,0,0,217.25,20V31.82a4.68,4.68,0,0,0,4.67,4.67h11.61a4.69,4.69,0,0,0,4.66-4.67V20A4.69,4.69,0,0,0,233.53,15.28Zm.5,15.89a1.6,1.6,0,0,1-1.6,1.59H222.6A1.59,1.59,0,0,1,221,31.17V20.72a1.6,1.6,0,0,1,1.59-1.6h9.83a1.6,1.6,0,0,1,1.6,1.6h0Z" transform="translate(0 0)"></path><path class="cls-1" d="M169.64,25.67V19.56c0-2.54-2.57-4.28-5.36-4.28H148.53V36.49h4.55V29.85H157l6.75,6.64h5.92L163,29.85h1.87A4.67,4.67,0,0,0,169.64,25.67Zm-16.56.21V19.56h10.7c1.55,0,2.05.68,2.05,3s-.38,3.31-2.17,3.31Z" transform="translate(0 0)"></path><path class="cls-1" d="M210.45,15.28H193.82V36.49h4.37V29.85h12.26a4.68,4.68,0,0,0,4.67-4.67V20A4.68,4.68,0,0,0,210.45,15.28Zm.3,9.3a1.36,1.36,0,0,1-1.36,1.36h-11.2V19.56h11.19a1.36,1.36,0,0,1,1.37,1.35h0Z" transform="translate(0 0)"></path><path class="cls-1" d="M304,15.28h-11.7A4.68,4.68,0,0,0,287.66,20V36.49h4.19V32.18h12.37v4.31h4.46V20A4.68,4.68,0,0,0,304,15.28ZM291.86,27.93V20.79a1.23,1.23,0,0,1,1.22-1.23H303a1.23,1.23,0,0,1,1.23,1.23h0v7.14Z" transform="translate(0 0)"></path><path class="cls-1" d="M130.48,44.25a2.16,2.16,0,0,1,1.81.69,3.23,3.23,0,0,1,.55,2v1a3.23,3.23,0,0,1-.55,2,2.23,2.23,0,0,1-1.81.68h-4.55v2.54c0,.2-.08.29-.25.29H124.5c-.17,0-.26-.09-.26-.29V44.59c0-.26.11-.4.33-.4Zm-4.55,4.69h4.21a1,1,0,0,0,.79-.29,1.47,1.47,0,0,0,.23-.89v-.5a1.47,1.47,0,0,0-.23-.89,1,1,0,0,0-.79-.29H126c-.1,0-.14.05-.14.16Z" transform="translate(0 0)"></path><path class="cls-1" d="M140.16,44.25a2.22,2.22,0,0,1,1.82.69,3.23,3.23,0,0,1,.55,2v.75a3.54,3.54,0,0,1-.39,1.8,1.79,1.79,0,0,1-1.25.85l1.88,2.8a.34.34,0,0,1,0,.2c0,.09-.07.13-.18.13H141a.76.76,0,0,1-.11-.14l-1.74-2.75h-3.55v2.63c0,.2-.08.29-.24.29h-1.19c-.17,0-.25-.09-.25-.29V44.64c0-.26.11-.4.33-.4ZM135.61,49h4.21a1,1,0,0,0,.79-.29,1.35,1.35,0,0,0,.23-.89v-.56a1.32,1.32,0,0,0-.23-.88.91.91,0,0,0-.79-.29h-4.07c-.09,0-.14,0-.14.16Z" transform="translate(0 0)"></path><path class="cls-1" d="M151.51,44.25c.17,0,.25.1.25.3V45.8c0,.2-.08.29-.25.29H146.7a2.13,2.13,0,0,0-.71.09,1,1,0,0,0-.45.29,1.26,1.26,0,0,0-.23.56,4.11,4.11,0,0,0-.07.86V48h6.21q.24,0,.24.3v1c0,.19-.08.29-.24.29h-6.21v.23a4.11,4.11,0,0,0,.07.86,1.26,1.26,0,0,0,.23.56,1,1,0,0,0,.45.29,2.13,2.13,0,0,0,.71.09h4.81c.17,0,.25.09.25.29v1.25c0,.2-.08.29-.25.29h-4.84a4.86,4.86,0,0,1-1.42-.18,2.06,2.06,0,0,1-1-.6,2.79,2.79,0,0,1-.54-1.09,6.81,6.81,0,0,1-.17-1.62V47.71a6.81,6.81,0,0,1,.17-1.62,2.75,2.75,0,0,1,.54-1.08,2.11,2.11,0,0,1,1-.6,4.56,4.56,0,0,1,1.42-.2Z" transform="translate(0 0)"></path><path class="cls-1" d="M155.2,44.25h.42a.71.71,0,0,1,.31.16,1.33,1.33,0,0,1,.23.3c.08.17.16.34.22.51l2.28,6.35a.17.17,0,0,0,.16.12H159a.16.16,0,0,0,.15-.12l2.29-6.35a3.89,3.89,0,0,1,.21-.51.89.89,0,0,1,.24-.3.73.73,0,0,1,.3-.16h1.59a.85.85,0,0,1,.77.31,2.07,2.07,0,0,1,.2,1.07v7.59c0,.2-.09.29-.25.29h-1.13c-.16,0-.24-.09-.24-.29V46.37c0-.09,0-.13-.09-.13h-.09a.13.13,0,0,0-.15.1l-2.22,5.93a3.24,3.24,0,0,1-.27.6,2,2,0,0,1-.29.4,1,1,0,0,1-.37.23,1.84,1.84,0,0,1-.47.06h-.53a2,2,0,0,1-.48-.06.86.86,0,0,1-.36-.23,1.68,1.68,0,0,1-.3-.4,4.06,4.06,0,0,1-.27-.6L155,46.34a.12.12,0,0,0-.14-.1h-.1c-.06,0-.09,0-.09.13v6.9c0,.2-.08.29-.24.29h-1.12c-.17,0-.26-.09-.26-.29V45.68a2.07,2.07,0,0,1,.2-1.07.86.86,0,0,1,.78-.31Z" transform="translate(0 0)"></path><path class="cls-1" d="M167.59,44.25q.24,0,.24.3v8.67c0,.2-.08.29-.24.29H166.4c-.17,0-.25-.09-.25-.29V44.55c0-.2.08-.3.25-.3Z" transform="translate(0 0)"></path><path class="cls-1" d="M170.71,44.25q.24,0,.24.3v5.27a5.22,5.22,0,0,0,.07.88,1.47,1.47,0,0,0,.24.56.9.9,0,0,0,.45.29,2.13,2.13,0,0,0,.71.09h3a2.13,2.13,0,0,0,.71-.09.88.88,0,0,0,.44-.29,1.47,1.47,0,0,0,.24-.56,6.51,6.51,0,0,0,.06-.88V44.55q0-.3.24-.3h1.2q.24,0,.24.3V50a6.8,6.8,0,0,1-.16,1.62,2.64,2.64,0,0,1-.53,1.09,2.11,2.11,0,0,1-1,.6,4.86,4.86,0,0,1-1.42.18h-3.17a4.86,4.86,0,0,1-1.42-.18,2,2,0,0,1-.95-.6,2.79,2.79,0,0,1-.54-1.09,6.81,6.81,0,0,1-.17-1.62V44.55c0-.2.09-.3.25-.3Z" transform="translate(0 0)"></path><path class="cls-1" d="M182.21,44.25h.42a.71.71,0,0,1,.31.16,1.33,1.33,0,0,1,.23.3c.08.17.16.34.22.51l2.28,6.35a.17.17,0,0,0,.16.12H186a.16.16,0,0,0,.15-.12l2.29-6.35a3.89,3.89,0,0,1,.21-.51.89.89,0,0,1,.24-.3.73.73,0,0,1,.3-.16h1.59a.85.85,0,0,1,.77.31,2.07,2.07,0,0,1,.2,1.07v7.59c0,.2-.09.29-.25.29h-1.13c-.16,0-.24-.09-.24-.29V46.37c0-.09,0-.13-.09-.13h-.09a.13.13,0,0,0-.15.1l-2.22,5.93a4.06,4.06,0,0,1-.27.6,2,2,0,0,1-.29.4,1,1,0,0,1-.37.23,2,2,0,0,1-.48.06h-.52a2,2,0,0,1-.48-.06.86.86,0,0,1-.36-.23,1.68,1.68,0,0,1-.3-.4,4.06,4.06,0,0,1-.27-.6l-2.17-6a.12.12,0,0,0-.14-.1h-.1c-.06,0-.09,0-.09.13v6.9c0,.2-.08.29-.24.29h-1.12c-.17,0-.26-.09-.26-.29V45.63a2.07,2.07,0,0,1,.2-1.07.86.86,0,0,1,.78-.31Z" transform="translate(0 0)"></path><path class="cls-1" d="M203.08,44.25a2.16,2.16,0,0,1,1.81.69,3.23,3.23,0,0,1,.55,2v1a3.23,3.23,0,0,1-.55,2,2.23,2.23,0,0,1-1.81.68h-4.56v2.54c0,.2-.08.29-.24.29h-1.19c-.16,0-.25-.09-.25-.29V44.59c0-.26.11-.4.33-.4Zm-4.56,4.69h4.21a1,1,0,0,0,.8-.29,1.47,1.47,0,0,0,.23-.89v-.5a1.47,1.47,0,0,0-.23-.89,1,1,0,0,0-.8-.29h-4.06c-.1,0-.15.05-.15.16Z" transform="translate(0 0)"></path><path class="cls-1" d="M212.76,44.25a2.16,2.16,0,0,1,1.81.69,3.23,3.23,0,0,1,.55,2v.75a3.63,3.63,0,0,1-.38,1.8,1.82,1.82,0,0,1-1.25.85l1.88,2.8a.34.34,0,0,1,0,.2c0,.09-.07.13-.18.13h-1.61a.49.49,0,0,1-.11-.14l-1.74-2.75h-3.55v2.63c0,.2-.08.29-.24.29h-1.19c-.17,0-.25-.09-.25-.29V44.64c0-.26.11-.4.33-.4ZM208.21,49h4.21a1,1,0,0,0,.79-.29,1.47,1.47,0,0,0,.23-.89v-.56a1.44,1.44,0,0,0-.23-.88.94.94,0,0,0-.79-.29h-4.07c-.09,0-.14,0-.14.16Z" transform="translate(0 0)"></path><path class="cls-1" d="M222.67,44.25a4.56,4.56,0,0,1,1.42.2,2.11,2.11,0,0,1,1,.6,2.55,2.55,0,0,1,.53,1.08,6.8,6.8,0,0,1,.16,1.62V50a6.8,6.8,0,0,1-.16,1.62,2.64,2.64,0,0,1-.53,1.09,2.11,2.11,0,0,1-1,.6,4.86,4.86,0,0,1-1.42.18h-3.4a4.86,4.86,0,0,1-1.42-.18,2,2,0,0,1-.95-.6,2.49,2.49,0,0,1-.54-1.09,6.81,6.81,0,0,1-.17-1.62V47.75a6.81,6.81,0,0,1,.17-1.62,2.45,2.45,0,0,1,.54-1.08,2.12,2.12,0,0,1,.95-.6,4.56,4.56,0,0,1,1.42-.2Zm-4.8,5.63a4.91,4.91,0,0,0,.07.86,1.47,1.47,0,0,0,.24.56.9.9,0,0,0,.45.29,2.07,2.07,0,0,0,.7.09h3.27a2.13,2.13,0,0,0,.71-.09.88.88,0,0,0,.44-.29,1.47,1.47,0,0,0,.24-.56,4.11,4.11,0,0,0,.07-.86v-2A4.11,4.11,0,0,0,224,47a1.47,1.47,0,0,0-.24-.56.88.88,0,0,0-.44-.29,2.13,2.13,0,0,0-.71-.09h-3.27a2.07,2.07,0,0,0-.7.09.9.9,0,0,0-.45.29,1.47,1.47,0,0,0-.24.56,4.91,4.91,0,0,0-.07.86Z" transform="translate(0 0)"></path><path class="cls-1" d="M233.34,44.25a2.16,2.16,0,0,1,1.81.69,3.23,3.23,0,0,1,.55,2v1a3.23,3.23,0,0,1-.55,2,2.23,2.23,0,0,1-1.81.68h-4.55v2.54c0,.2-.08.29-.24.29h-1.19c-.17,0-.25-.09-.25-.29V44.59c0-.26.11-.4.33-.4Zm-4.55,4.69H233a1,1,0,0,0,.79-.29,1.47,1.47,0,0,0,.23-.89v-.5a1.47,1.47,0,0,0-.23-.89,1,1,0,0,0-.79-.29h-4.1c-.09,0-.14.05-.14.16Z" transform="translate(0 0)"></path><path class="cls-1" d="M244.62,44.25c.17,0,.25.1.25.3V45.8c0,.2-.08.29-.25.29h-4.81a2.07,2.07,0,0,0-.7.09.93.93,0,0,0-.46.29,1.26,1.26,0,0,0-.23.56,4.11,4.11,0,0,0-.07.86V48h6.21c.16,0,.25.1.25.3v1c0,.19-.09.29-.25.29h-6.21v.23a4.11,4.11,0,0,0,.07.86,1.26,1.26,0,0,0,.23.56.93.93,0,0,0,.46.29,2.07,2.07,0,0,0,.7.09h4.81c.17,0,.25.09.25.29v1.25c0,.2-.08.29-.25.29h-4.84a4.86,4.86,0,0,1-1.42-.18,2,2,0,0,1-1-.6,2.79,2.79,0,0,1-.54-1.09A6.81,6.81,0,0,1,236.7,50V47.71a6.81,6.81,0,0,1,.17-1.62,2.75,2.75,0,0,1,.54-1.08,2.17,2.17,0,0,1,1-.6,4.56,4.56,0,0,1,1.42-.2Z" transform="translate(0 0)"></path><path class="cls-1" d="M252.37,44.25a2.16,2.16,0,0,1,1.81.69,3.23,3.23,0,0,1,.55,2v.75a3.63,3.63,0,0,1-.38,1.8,1.81,1.81,0,0,1-1.26.85l1.88,2.8a.23.23,0,0,1,0,.2.17.17,0,0,1-.18.13h-1.62l-.11-.14-1.73-2.75h-3.55v2.63c0,.2-.08.29-.24.29h-1.19c-.17,0-.25-.09-.25-.29V44.64c0-.26.11-.4.33-.4ZM247.82,49H252a1,1,0,0,0,.79-.29,1.47,1.47,0,0,0,.23-.89v-.56a1.44,1.44,0,0,0-.23-.88,1,1,0,0,0-.79-.29H248c-.1,0-.14,0-.14.16Z" transform="translate(0 0)"></path><path class="cls-1" d="M264.32,44.25c.17,0,.25.1.25.3v1.29c0,.2-.08.31-.25.31h-3.45v7.07c0,.2-.09.29-.25.29h-1.19c-.17,0-.25-.09-.25-.29V46.15h-3.45c-.17,0-.25-.11-.25-.31V44.55c0-.2.08-.3.25-.3Z" transform="translate(0 0)"></path><path class="cls-1" d="M267,44.25q.24,0,.24.3v8.67c0,.2-.08.29-.24.29h-1.19c-.17,0-.25-.09-.25-.29V44.55c0-.2.08-.3.25-.3Z" transform="translate(0 0)"></path><path class="cls-1" d="M276.52,44.25c.17,0,.25.1.25.3V45.8c0,.2-.08.29-.25.29h-4.8a2.13,2.13,0,0,0-.71.09.9.9,0,0,0-.45.29,1.13,1.13,0,0,0-.24.56,4.91,4.91,0,0,0-.07.86V48h6.21c.17,0,.25.1.25.3v1c0,.19-.08.29-.25.29h-6.21v.23a4.91,4.91,0,0,0,.07.86,1.13,1.13,0,0,0,.24.56.9.9,0,0,0,.45.29,2.13,2.13,0,0,0,.71.09h4.8c.17,0,.25.09.25.29v1.25c0,.2-.08.29-.25.29h-4.84a4.86,4.86,0,0,1-1.42-.18,2.11,2.11,0,0,1-1-.6,2.79,2.79,0,0,1-.54-1.09,6.8,6.8,0,0,1-.16-1.62V47.71a6.8,6.8,0,0,1,.16-1.62,2.75,2.75,0,0,1,.54-1.08,2.19,2.19,0,0,1,1-.6,4.56,4.56,0,0,1,1.42-.2Z" transform="translate(0 0)"></path><path class="cls-1" d="M285.68,44.25q.24,0,.24.3V45.8c0,.2-.08.29-.24.29h-5.51a.53.53,0,0,0-.45.2.92.92,0,0,0-.13.54v.45c0,.5.19.74.57.74h4.12a1.74,1.74,0,0,1,1.44.59,2.61,2.61,0,0,1,.48,1.69v1.07a2.42,2.42,0,0,1-.47,1.56,1.74,1.74,0,0,1-1.47.59h-6.09c-.17,0-.25-.09-.25-.29V52c0-.2.08-.29.25-.29h5.77a.53.53,0,0,0,.45-.2,1,1,0,0,0,.13-.54v-.57c0-.49-.19-.74-.57-.74h-4.12a1.74,1.74,0,0,1-1.44-.59,2.6,2.6,0,0,1-.49-1.68v-1a2.37,2.37,0,0,1,.48-1.56,1.74,1.74,0,0,1,1.47-.6Z" transform="translate(0 0)"></path></svg> 